# AST/ASF file generated using VICON BodyLanguage
# -----------------------------------------------
:version 1.10
:name VICON
:units
  mass 1.0
  length 0.45
  angle deg
:documentation
   .ast/.asf automatically generated from VICON data using
   VICON BodyBuilder and BodyLanguage model FoxedUp or BRILLIANT.MOD
:root
   order TX TY TZ RX RY RZ
   axis XYZ
   position 0 0 0  
   orientation 0 0 0 
:bonedata
  begin
     id 1 
     name lhipjoint
     direction 0.677091 -0.635792 0.370561 
     length 2.74323 
     axis 0 0 0  XYZ
  end
  begin
     id 2 
     name lfemur
     direction 0.34202 -0.939693 0  
     length 7.44995  
     axis 0 0 20  XYZ
    dof rx ry rz
    limits (-160.0 20.0)
           (-70.0 70.0)
           (-60.0 70.0)
  end
  begin
     id 3 
     name ltibia
     direction 0.34202 -0.939693 0   
     length 7.34467   
     axis 0 0 20   XYZ
    dof rx
    limits (-10.0 170.0)
  end
  begin
     id 4 
     name lfoot
     direction 0.101953 -0.280114 0.954537   
     length 1.72105   
     axis -90 7.62852e-016 20   XYZ
    dof rx rz
    limits (-45.0 90.0)
           (-70.0 20.0)
  end
  begin
     id 5 
     name ltoes
     direction 1.53537e-011 -4.21915e-011 1   
     length 0.865872   
     axis -90 7.62852e-016 20   XYZ
    dof rx
    limits (-90.0 20.0)
  end
  begin
     id 6 
     name rhipjoint
     direction -0.695735 -0.620586 0.361699   
     length 2.81045  
     axis 0 0 0  XYZ 
  end
  begin
     id 7 
     name rfemur
     direction -0.34202 -0.939693 0   
     length 7.29387   
     axis 0 0 -20   XYZ
    dof rx ry rz
    limits (-160.0 20.0)
           (-70.0 70.0)
           (-70.0 60.0)
  end
  begin
     id 8 
     name rtibia
     direction -0.34202 -0.939693 0   
     length 7.44935   
     axis 0 0 -20   XYZ
    dof rx
    limits (-10.0 170.0)
 end
 begin
     id 9 
     name rfoot
     direction -0.104163 -0.286184 0.952496   
     length 1.77731  
     axis -90 -7.62852e-016 -20   XYZ
    dof rx rz
    limits (-45.0 90.0)
           (-20.0 70.0)
  end
  begin
     id 10 
     name rtoes
     direction -1.5355e-011 -4.21888e-011 1   
     length 0.892424   
     axis -90 -7.62852e-016 -20   XYZ
    dof rx
    limits (-90.0 20.0)
  end
  begin
     id 11 
     name lowerback
     direction 0.0100202 0.997226 -0.0737589   
     length 2.16892   
     axis 0 0 0   XYZ
    dof rx ry rz
    limits (-20.0 45.0)
           (-30.0 30.0)
           (-30.0 30.0)
  end
  begin
     id 12 
     name upperback
     direction 0.00432398 0.999988 -0.00215019   
     length 2.17326   
     axis 0 0 0   XYZ
    dof rx ry rz
    limits (-20.0 45.0)
           (-30.0 30.0)
           (-30.0 30.0)
  end
  begin
     id 13 
     name thorax
     direction -0.00195047 0.999485 0.0320434   
     length 2.18139   
     axis 0 0 0   XYZ
    dof rx ry rz
    limits (-20.0 45.0)
           (-30.0 30.0)
           (-30.0 30.0)
  end
  begin
     id 14 
     name lowerneck
     direction 0.00782762 0.986241 0.165128   
     length 1.88415   
     axis 0 0 0   XYZ
    dof rx ry rz
    limits (-20.0 45.0)
           (-30.0 30.0)
           (-30.0 30.0)
  end
  begin
     id 15 
     name upperneck
     direction 0.00988667 0.981098 -0.193258   
     length 1.9242   
     axis 0 0 0   XYZ
    dof rx ry rz
    limits (-20.0 45.0)
           (-30.0 30.0)
           (-30.0 30.0)
  end
  begin
     id 16
     name head
     direction 0.00252199 0.996513 -0.0833958  
     length 1.93887  
     axis 0 0 0   XYZ
    dof rx ry rz
    limits (-20.0 45.0)
           (-30.0 30.0)
           (-30.0 30.0)
  end
  begin
     id 17 
     name lclavicle
     direction 0.929492 0.368193 -0.0218667  
     length 3.5955  
     axis 0 0 0   XYZ
    dof ry rz
    limits (-20.0 10.0)
           (0.0 20.0)
  end
  begin
     id 18 
     name lhumerus
     direction 1 -4.48972e-011 1.41911e-027   
     length 5.2795   
     axis 180 -30 -90   XYZ
    dof rx ry rz
    limits (-60.0 90.0)
           (-90.0 90.0)
           (-90.0 90.0)
  end
  begin
     id 19
     name lradius
     direction 1 -4.48963e-011 7.05772e-027   
     length 3.53504   
     axis 180 -30 -90   XYZ
    dof rx
    limits (-10.0 170.0)
  end
  begin
     id 20
     name lwrist
     direction 1 -4.48957e-011 9.54866e-027   
     length 1.76752   
     axis -7.69462e-015 90 90   XYZ
    dof ry
    limits (-180.0 0.0)
 end
  begin
     id 21 
     name lhand
     direction 1 -4.48979e-011 1.90973e-026   
     length 0.667948   
     axis -1.21857e-014 90 90   XYZ
    dof rx rz
    limits (-90.0 90.0)
           (-45.0 45.0)
  end
  begin
     id 22 
     name lfingers
     direction 1 -4.48987e-011 3.81946e-026   
     length 0.538517   
     axis -2.43714e-014 90 90   XYZ
    dof rx
    limits (0.0 90.0)
  end
  begin
     id 23
     name lthumb
     direction 0.707107 -6.34962e-011 0.707107   
     length 0.773206   
     axis -90 45 2.85299e-015   XYZ
    dof rx rz
    limits (-45.0 45.0)
           (-45.0 45.0)
  end
  begin
     id 24 
     name rclavicle
     direction -0.898763 0.414256 -0.143584   
     length 3.5176  
     axis 0 0 0   XYZ 
    dof ry rz
    limits (-10.0 20.0)
           (-20.0 0.0)
  end
  begin
     id 25 
     name rhumerus
     direction -1 -4.48971e-011 1.129e-027  
     length 5.25035   
     axis 180 30 90   XYZ
    dof rx ry rz
    limits (-90.0 60.0)
           (-90.0 90.0)
           (-90.0 90.0)
  end
  begin
     id 26 
     name rradius
     direction -1 -4.48955e-011 6.34664e-027   
     length 3.58884   
     axis 180 30 90   XYZ
    dof rx
    limits (-10.0 170.0)
  end
  begin
     id 27 
     name rwrist
     direction -1 -4.48966e-011 9.54866e-027   
     length 1.79442   
     axis -7.69462e-015 -90 -90   XYZ
    dof ry
    limits (-180.0 0.0)
  end
  begin
     id 28
     name rhand
     direction -1 -4.48973e-011 1.90973e-026   
     length 0.779235   
     axis -1.21857e-014 -90 -90   XYZ
    dof rx rz
    limits (-90.0 90.0)
           (-45.0 45.0)
  end
  begin
     id 29
     name rfingers
     direction -1 -4.48984e-011 3.81946e-026   
     length 0.62824   
     axis -2.43714e-014 -90 -90   XYZ
    dof rx
    limits (0.0 90.0)
  end
  begin
     id 30
     name rthumb
     direction -0.707107 -6.34968e-011 0.707107   
     length 0.90203   
     axis -90 -45 -2.85299e-015   XYZ
    dof rx rz
    limits (-45.0 45.0)
           (-45.0 45.0)
  end
:hierarchy
  begin
    root lhipjoint rhipjoint lowerback
    lhipjoint lfemur
    lfemur ltibia
    ltibia lfoot
    lfoot ltoes
    rhipjoint rfemur
    rfemur rtibia
    rtibia rfoot
    rfoot rtoes
    lowerback upperback
    upperback thorax
    thorax lowerneck lclavicle rclavicle
    lowerneck upperneck
    upperneck head
    lclavicle lhumerus
    lhumerus lradius
    lradius lwrist
    lwrist lhand lthumb
    lhand lfingers
    rclavicle rhumerus
    rhumerus rradius
    rradius rwrist
    rwrist rhand rthumb
    rhand rfingers
  end

#!OML:ASF I:\Random Stuff\random\construction\7_22_03\Session 2\subj1.ASF
:FULLY-SPECIFIED
:DEGREES
435
root -20.8053 17.7067 -4.15123 -162.404 40.0501 185.523
lowerback 9.61665 -0.391527 -8.74546
upperback 0.752977 -1.39467 -0.38229
thorax -4.41174 -0.490992 4.70337
lowerneck -22.2372 -4.61272 -2.09146
upperneck 35.0925 -8.23433 9.62449
head 17.1688 -1.66211 3.12723
rclavicle 2.10712e-014 1.59028e-015
rhumerus -37.8793 0.316622 -75.0614
rradius 57.9333
rwrist -28.9505
rhand -30.5954 12.8008
rfingers 7.12502
rthumb -3.89246 -17.1433
lclavicle 2.10712e-014 1.59028e-015
lhumerus -31.6985 -10.6952 85.7592
lradius 59.5014
lwrist 21.2454
lhand -41.8611 68.1638
lfingers 7.12502
lthumb -14.7613 -457.618
rfemur -27.6153 -5.91325 14.6767
rtibia 10.0421
rfoot -6.02391 -26.1511
rtoes 4.74228
lfemur -16.8463 0.556021 -15.6576
ltibia 23.248
lfoot -24.8478 36.8726
ltoes -5.14834
436
root -20.6631 17.6761 -4.16258 -163.336 40.9469 184.792
lowerback 9.97245 -0.319916 -8.84365
upperback 0.681406 -1.35068 -0.350515
thorax -4.6907 -0.452377 4.79575
lowerneck -22.2019 -4.54708 -2.14783
upperneck 35.0708 -8.12755 9.65988
head 17.1436 -1.62447 3.17479
rclavicle -3.26007e-014 3.18055e-015
rhumerus -38.4042 -0.31392 -75.0004
rradius 57.462
rwrist -26.5916
rhand -28.3796 12.4093
rfingers 7.12502
rthumb -1.75252 -17.5632
lclavicle -3.26007e-014 3.18055e-015
lhumerus -32.018 -14.1681 87.5877
lradius 60.1691
lwrist 24.0239
lhand -40.24 65.2307
lfingers 7.12502
lthumb -13.1991 -454.793
rfemur -26.9138 -4.2299 13.0196
rtibia 8.18376
rfoot -6.49385 -28.2758
rtoes 7.80259
lfemur -15.4328 0.783636 -16.1116
ltibia 22.534
lfoot -25.3033 36.955
ltoes -2.34913
437
root -20.505 17.6557 -4.17105 -163.93 41.4875 184.054
lowerback 9.89608 -0.362588 -8.82733
upperback 0.536236 -1.40992 -0.287252
thorax -4.79243 -0.475274 4.8617
lowerneck -22.1628 -4.51693 -2.24761
upperneck 35.0539 -8.06635 9.72422
head 17.129 -1.60607 3.23427
rclavicle -9.54166e-014 1.59028e-015
rhumerus -38.8597 -0.800031 -74.9795
rradius 56.8633
rwrist -23.4079
rhand -26.3626 11.2663
rfingers 7.12502
rthumb 0.195576 -18.7134
lclavicle -9.54166e-014 1.59028e-015
lhumerus -32.3742 -17.288 89.3012
lradius 60.8943
lwrist 26.7003
lhand -38.0505 62.4067
lfingers 7.12502
lthumb -11.088 -452.094
rfemur -26.3231 -2.88833 11.5468
rtibia 6.36286
rfoot -7.52599 -30.2359
rtoes 12.4209
lfemur -14.4454 1.17273 -16.4282
ltibia 21.806
lfoot -24.8876 36.9993
ltoes -2.70831
438
root -20.3377 17.6304 -4.18313 -164.577 41.9141 183.22
lowerback 9.79506 -0.422638 -8.78468
upperback 0.363064 -1.48907 -0.233394
thorax -4.90788 -0.507282 4.90526
lowerneck -22.0812 -4.4943 -2.33894
upperneck 34.9998 -8.0238 9.81036
head 17.0872 -1.59266 3.29619
rclavicle 1.19271e-015 8.74653e-015
rhumerus -39.2611 -1.0616 -75.0402
rradius 56.1036
rwrist -20.2587
rhand -24.6693 10.4585
rfingers 7.12502
rthumb 1.831 -19.5134
lclavicle 1.19271e-015 8.74653e-015
lhumerus -32.8409 -20.1321 90.9191
lradius 61.6401
lwrist 29.1348
lhand -35.0394 59.8993
lfingers 7.12502
lthumb -8.18276 -630.279
rfemur -25.6443 -1.69546 9.99043
rtibia 4.76249
rfoot -8.95075 -31.9605
rtoes 17.6771
lfemur -13.4535 1.62091 -16.7717
ltibia 21.0572
lfoot -23.9744 37.041
ltoes -4.44657
439
root -20.1595 17.5992 -4.20217 -165.357 42.2995 182.339
lowerback 9.73879 -0.473354 -8.70107
upperback 0.188825 -1.55516 -0.173564
thorax -5.05234 -0.532241 4.93158
lowerneck -21.9383 -4.47901 -2.47135
upperneck 34.9481 -7.96903 9.8913
head 17.0315 -1.58126 3.36597
rclavicle -5.56597e-015 -7.95139e-015
rhumerus -39.601 -0.928101 -75.2478
rradius 55.0772
rwrist -17.4036
rhand -22.4387 11.4599
rfingers 7.12502
rthumb 3.98514 -18.4826
lclavicle -5.56597e-015 -7.95139e-015
lhumerus -33.35 -22.22 92.4965
lradius 62.221
lwrist 30.6745
lhand -31.3101 57.8816
lfingers 7.12502
lthumb -4.58254 -632.188
rfemur -24.9668 -0.514361 8.38358
rtibia 3.66822
rfoot -10.2988 -33.5262
rtoes 22.2519
lfemur -12.2777 1.92786 -17.1086
ltibia 20.2513
lfoot -23.549 37.0878
ltoes -5.10383
440
root -19.9688 17.5636 -4.22203 -166.315 42.6068 181.4
lowerback 9.62841 -0.520208 -8.66159
upperback 0.149809 -1.6031 -0.0760054
thorax -5.02287 -0.557762 5.01688
lowerneck -21.8792 -4.49287 -2.69153
upperneck 34.8689 -7.92867 9.96035
head 16.9867 -1.59219 3.43981
rclavicle 2.44505e-014 1.82882e-014
rhumerus -39.6765 -0.659844 -75.4391
rradius 53.9221
rwrist -14.9263
rhand -21.2454 12.1869
rfingers 7.12502
rthumb 5.13736 -17.7309
lclavicle 2.44505e-014 1.82882e-014
lhumerus -33.5923 -23.9162 93.8842
lradius 62.4827
lwrist 30.684
lhand -25.3858 54.9723
lfingers 7.12502
lthumb 1.13895 -635.051
rfemur -24.4887 0.678032 6.89575
rtibia 3.39857
rfoot -11.3666 -35.1378
rtoes 25.7333
lfemur -10.9274 2.09397 -17.4262
ltibia 19.4391
lfoot -23.4933 37.1331
ltoes -5.52583
441
root -19.763 17.5201 -4.24101 -167.4 42.7761 180.395
lowerback 9.45595 -0.597756 -8.65261
upperback 0.192763 -1.68264 0.0167031
thorax -4.86565 -0.605718 5.11486
lowerneck -21.8794 -4.50801 -2.90422
upperneck 34.7424 -7.90335 10.0422
head 16.934 -1.60848 3.51124
rclavicle 1.07145e-013 1.51076e-014
rhumerus -39.5638 -0.414786 -75.6551
rradius 52.7321
rwrist -12.6048
rhand -20.4955 12.1339
rfingers 7.12502
rthumb 5.86145 -17.765
lclavicle 1.07145e-013 1.51076e-014
lhumerus -33.8902 -25.3817 95.3766
lradius 62.7895
lwrist 31.6797
lhand -23.1013 54.3244
lfingers 7.12502
lthumb 3.34525 -635.722
rfemur -24.5812 1.89155 5.6799
rtibia 4.56984
rfoot -12.5409 -36.9602
rtoes 27.3028
lfemur -9.39929 2.01592 -17.7225
ltibia 18.4974
lfoot -23.3495 37.3217
ltoes -6.91796
442
root -19.5371 17.472 -4.26307 -168.389 42.8582 179.674
lowerback 9.25604 -0.660889 -8.39568
upperback 0.240391 -1.71478 0.125442
thorax -4.70132 -0.63699 5.08262
lowerneck -21.8336 -4.51815 -3.05125
upperneck 34.612 -7.8862 10.1115
head 16.8649 -1.6198 3.56372
rclavicle -1.45113e-014 1.74931e-014
rhumerus -39.4734 -0.177143 -75.9663
rradius 51.3887
rwrist -10.45
rhand -19.9347 12.1589
rfingers 7.12502
rthumb 6.4029 -17.7243
lclavicle -1.45113e-014 1.74931e-014
lhumerus -34.4647 -27.1288 97.003
lradius 63.1368
lwrist 33.405
lhand -23.0514 54.0598
lfingers 7.12502
lthumb 3.3935 -635.988
rfemur -24.8958 3.20937 4.93421
rtibia 6.61815
rfoot -13.1738 -38.8836
rtoes 26.4609
lfemur -7.58465 1.68888 -17.7271
ltibia 17.3211
lfoot -23.0967 37.7142
ltoes -8.93631
443
root -19.2975 17.4297 -4.29021 -169.471 42.8294 178.807
lowerback 9.00068 -0.716002 -8.16511
upperback 0.242655 -1.73959 0.204014
thorax -4.55552 -0.661998 5.03111
lowerneck -21.7631 -4.59341 -3.276
upperneck 34.5491 -7.94031 10.2028
head 16.8385 -1.66236 3.63076
rclavicle 9.74045e-015 1.90833e-014
rhumerus -39.4401 -0.0351516 -76.1731
rradius 49.902
rwrist -9.22426
rhand -19.4504 12.4695
rfingers 7.12502
rthumb 6.8704 -17.399
lclavicle 9.74045e-015 1.90833e-014
lhumerus -35.1331 -28.8445 98.7188
lradius 63.253
lwrist 34.2677
lhand -23.2785 54.24
lfingers 7.12502
lthumb 3.17415 -635.804
rfemur -25.1447 4.43821 4.12367
rtibia 8.79587
rfoot -11.7913 -40.915
rtoes 22.7601
lfemur -5.65171 1.58093 -17.8024
ltibia 15.9174
lfoot -22.1227 38.0059
ltoes -12.2274
444
root -19.0546 17.4004 -4.31641 -170.607 42.635 177.75
lowerback 8.76767 -0.823605 -7.97722
upperback 0.172889 -1.84773 0.244199
thorax -4.48668 -0.722068 4.9744
lowerneck -21.7123 -4.70746 -3.55615
upperneck 34.5975 -8.0319 10.2975
head 16.8827 -1.71986 3.70991
rclavicle -7.84206e-014 -4.77083e-015
rhumerus -39.427 0.172436 -76.4272
rradius 48.341
rwrist -9.23776
rhand -19.4561 12.812
rfingers 7.12502
rthumb 6.86486 -17.0567
lclavicle -7.84206e-014 -4.77083e-015
lhumerus -35.7899 -30.4153 100.421
lradius 63.0853
lwrist 34.2895
lhand -23.3887 54.7844
lfingers 7.12502
lthumb 3.06769 -635.258
rfemur -25.4464 5.41442 3.0624
rtibia 10.9984
rfoot -8.68208 -42.8044
rtoes 17.3311
lfemur -3.76966 1.58204 -17.9928
ltibia 14.3544
lfoot -20.667 38.1743
ltoes -15.3543
445
root -18.8074 17.3829 -4.33537 -171.448 42.392 177.173
lowerback 8.65763 -0.934213 -7.43153
upperback 0.109822 -1.93372 0.36175
thorax -4.49176 -0.775998 4.79827
lowerneck -21.6752 -4.76829 -3.77734
upperneck 34.593 -8.06273 10.379
head 16.8922 -1.74955 3.78128
rclavicle 8.81113e-014 -2.22639e-014
rhumerus -39.2589 -0.018973 -76.4472
rradius 46.9473
rwrist -11.8136
rhand -19.5638 11.6927
rfingers 7.12502
rthumb 6.76093 -18.1793
lclavicle 8.81113e-014 -2.22639e-014
lhumerus -36.3091 -31.8681 101.994
lradius 62.6632
lwrist 34.1182
lhand -23.4044 55.283
lfingers 7.12502
lthumb 3.05259 -634.759
rfemur -25.6301 2.44805 4.17053
rtibia 13.172
rfoot -5.08731 -39.7956
rtoes 12.6077
lfemur -1.82037 1.36078 -17.7779
ltibia 12.6787
lfoot -19.8925 38.3054
ltoes -14.894
446
root -18.5611 17.3686 -4.34743 -172.055 42.1573 177.066
lowerback 8.77651 -1.0454 -6.48276
upperback 0.0582631 -1.99433 0.545498
thorax -4.6283 -0.821068 4.46866
lowerneck -21.6094 -4.74457 -3.90702
upperneck 34.4547 -7.98658 10.4138
head 16.8038 -1.73932 3.82649
rclavicle 6.60462e-014 -6.75868e-015
rhumerus -38.9808 -0.464676 -76.3479
rradius 45.3783
rwrist -15.7946
rhand -19.8752 11.1571
rfingers 7.12502
rthumb 6.46028 -18.7244
lclavicle 6.60462e-014 -6.75868e-015
lhumerus -36.6763 -33.0198 103.375
lradius 62.0195
lwrist 33.8522
lhand -23.3077 55.8018
lfingers 7.12502
lthumb 3.14594 -634.242
rfemur -25.7003 -0.484118 5.59082
rtibia 15.0368
rfoot -2.06662 -35.7629
rtoes 7.78717
lfemur 0.0625165 1.10143 -17.1692
ltibia 11.2921
lfoot -17.1678 38.7204
ltoes -19.6806
447
root -18.3193 17.3606 -4.35427 -172.478 41.9885 177.366
lowerback 9.11746 -1.19537 -5.21917
upperback 0.00304754 -2.07677 0.809148
thorax -4.90034 -0.879434 4.05585
lowerneck -21.5581 -4.65913 -3.97773
upperneck 34.3646 -7.80602 10.341
head 16.7208 -1.69321 3.83617
rclavicle -1.01057e-013 2.03754e-014
rhumerus -38.6045 -0.950451 -76.2226
rradius 43.6438
rwrist -19.5401
rhand -20.6982 10.4697
rfingers 7.12502
rthumb 5.66574 -19.4346
lclavicle -1.01057e-013 2.03754e-014
lhumerus -36.8977 -33.6129 104.563
lradius 61.0966
lwrist 33.348
lhand -23.1654 56.4411
lfingers 7.12502
lthumb 3.28337 -633.604
rfemur -25.4911 -3.30585 7.3201
rtibia 16.3924
rfoot 0.442655 -30.954
rtoes 2.74386
lfemur 1.58816 1.18014 -16.1861
ltibia 10.7713
lfoot -15.9006 38.655
ltoes -22.8948
448
root -18.0837 17.3604 -4.35411 -172.521 42.0842 178.148
lowerback 9.51564 -1.34071 -3.72259
upperback -0.0868844 -2.10682 1.20979
thorax -5.25195 -0.915297 3.65228
lowerneck -21.5978 -4.50931 -4.02647
upperneck 34.4553 -7.50574 10.168
head 16.7316 -1.60039 3.83354
rclavicle 4.33848e-014 2.54444e-014
rhumerus -38.112 -1.4883 -75.904
rradius 41.8204
rwrist -22.1791
rhand -20.1726 9.58347
rfingers 7.12502
rthumb 6.17323 -20.3066
lclavicle 4.33848e-014 2.54444e-014
lhumerus -36.9432 -33.646 105.594
lradius 59.8934
lwrist 32.7321
lhand -22.4684 56.9542
lfingers 7.12502
lthumb 3.95648 -633.103
rfemur -25.2556 -4.98014 9.1463
rtibia 17.4502
rfoot 1.91822 -27.3236
rtoes -0.945133
lfemur 2.60798 1.58187 -14.7912
ltibia 11.1124
lfoot -16.1066 38.3556
ltoes -22.7095
